<svg version="1.2" xmlns="http://www.w3.org/2000/svg" viewBox="0 0 463 442" width="463" height="442">
	<style>
		.s0 { opacity: 1;fill: #010000 } 
		.s1 { opacity: 1;fill: #fefefd } 
	</style>
	<g id="Layer 1">
		<g id="Background">
			<g id="Folder 1">
				<path id="Path 0" fill-rule="evenodd" class="s0" d="m209.5 18.62c-2.2 0.24-8.5 1.11-14 1.94-5.5 0.84-14.5 2.69-20 4.12-5.5 1.43-15.63 4.66-22.5 7.17-6.88 2.51-18.35 7.51-25.5 11.11-7.86 3.95-13 7.12-13 8.02 0 0.81 4.05 4.46 9 8.09l9 6.62c17.05-9.14 24.93-13.17 28.5-14.85 3.57-1.67 10.55-4.62 15.5-6.54 4.95-1.92 15.53-5.06 23.5-6.98 7.97-1.91 19.45-3.88 25.5-4.38 6.05-0.5 17.97-0.91 26.5-0.92 8.52 0 19.77 0.63 25 1.41 5.23 0.79 14.23 2.63 20 4.09 5.77 1.47 15.45 4.44 21.5 6.6 6.05 2.16 16.18 6.55 22.5 9.76 6.32 3.21 14.54 7.7 18.25 9.98 3.71 2.28 6.98 3.92 7.25 3.64 0.27-0.28-2.09-2.45-5.25-4.83-3.16-2.38-9.13-6.59-13.25-9.34-4.13-2.75-11.32-7.07-16-9.59-4.68-2.53-12.55-6.37-17.5-8.55-4.95-2.18-12.6-5.14-17-6.59-4.4-1.45-11.82-3.54-16.5-4.65-4.68-1.12-12.55-2.72-17.5-3.56-5.37-0.91-17.26-1.66-29.5-1.86-11.28-0.18-22.3-0.14-24.5 0.09zm235.25 166.88c0.41 5.5 0.73 21.03 0.71 34.5-0.02 19.84-0.44 27.16-2.17 38.5-1.17 7.7-2.43 18.5-2.8 24-0.59 8.88-0.5 9.83 0.84 8.5 0.82-0.82 2.42-4.65 3.56-8.5 1.13-3.85 3.08-12.62 4.33-19.5 1.95-10.69 2.28-15.83 2.26-35.5-0.02-20.31-0.3-24.28-2.38-34-1.29-6.05-2.97-12.57-3.73-14.5-1.25-3.17-1.3-2.57-0.62 6.5zm-227.75 137.88c0.28 0.24 14.22 5.17 31 10.94 16.77 5.78 37.7 13.06 46.5 16.18 8.8 3.13 27.7 9.61 42 14.4 14.3 4.79 26.56 9.02 27.25 9.41 0.69 0.38 1.27 1.25 1.3 1.94 0.02 0.69-1.44 2.43-3.25 3.87-1.82 1.44-7.57 4.91-12.8 7.71-5.23 2.79-14.23 7.06-20 9.47-5.77 2.41-13.65 5.33-17.5 6.49-3.85 1.16-13.98 3.49-22.5 5.17-14.6 2.88-16.86 3.05-38.75 3.05-19.12-0.01-24.98-0.36-33-1.98-5.36-1.08-14.25-3.13-19.75-4.56-5.5-1.43-15.18-4.62-21.5-7.1-6.32-2.47-16.22-6.99-22-10.05-5.78-3.05-14.78-8.62-20-12.36-5.22-3.75-13.86-10.79-19.18-15.64-5.33-4.85-12.98-12.33-17-16.63-5.6-5.97-8.38-8.14-11.82-9.23-2.47-0.79-12.38-3.47-22-5.96-9.63-2.49-18.06-4.52-18.75-4.51-0.69 0-1.26 0.35-1.28 0.76-0.01 0.41 3 4.8 6.7 9.75 3.7 4.95 11.47 13.9 17.28 19.89 5.8 5.99 14.38 14.26 19.05 18.38 4.67 4.11 13.69 10.91 20.03 15.11 6.34 4.19 18.49 11.08 27 15.31 8.51 4.23 20.19 9.31 25.97 11.3 5.78 1.98 14.78 4.69 20 6.02 5.22 1.32 14.45 3.38 20.5 4.57 9.31 1.84 14.77 2.19 35.5 2.3 21.41 0.1 26.01-0.16 36.5-2.1 6.6-1.23 15.6-3.15 20-4.27 4.4-1.12 12.95-3.65 19-5.64 6.05-1.98 16.85-6.43 24-9.88 7.15-3.45 16.6-8.64 21-11.52 4.4-2.88 12.05-8.29 17-12.03l9-6.79c16.27 2.07 21.11 2.6 21.24 2.51 0.14-0.09-7.51-2.72-17-5.86-9.48-3.13-23.54-7.54-31.24-9.79-7.7-2.25-38.52-11.05-68.5-19.55-29.98-8.5-57.76-16.35-61.75-17.46-3.99-1.1-7.59-2.01-8-2.03-0.41-0.01-0.53 0.17-0.25 0.41z"/>
				<path id="Path 4" fill-rule="evenodd" class="s0" d="m38.48 31.75c2.17 2.61 9.58 11.27 16.47 19.25 6.88 7.98 20.65 23.95 30.58 35.5 9.93 11.55 34.91 40.61 55.51 64.57 20.6 23.97 59.36 69.19 86.13 100.5 26.76 31.31 49.71 58.25 51 59.86l2.33 2.94c-13.17-1.02-30.27-3.54-46.5-6.25-16.22-2.72-35.8-5.9-43.5-7.06-7.7-1.17-15.57-2.33-17.5-2.57l-3.5-0.44c6.2 2.35 15.43 5.08 24.5 7.59 9.08 2.51 18.98 5.21 22 6.01 3.03 0.79 13.38 3.5 23 6 9.63 2.51 29.2 7.61 43.5 11.33 14.3 3.72 35.45 9.28 47 12.35 11.55 3.06 28.65 7.59 38 10.04 9.35 2.46 26.23 6.97 37.5 10.02 11.27 3.04 22.08 5.81 24 6.15 2.55 0.45 3.84 0.19 4.75-0.96 1.05-1.33 0.65-2.18-2.5-5.33-2.07-2.06-13.39-11.85-25.16-21.75-11.77-9.9-30.49-25.65-41.59-35-11.1-9.35-32.93-27.8-48.51-41-15.58-13.2-37.84-32.1-49.47-42-11.63-9.9-31.89-27-45.02-38-13.13-11-33.13-27.8-44.44-37.33-11.31-9.52-31.54-26.62-44.97-38-13.42-11.37-40.42-34.28-60-50.91-19.57-16.64-36.03-30.25-36.57-30.25-0.54-0.01 0.8 2.13 2.96 4.74zm184.02 9.71c-4.95 0.76-13.95 2.49-20 3.85-6.05 1.36-15.5 4.15-21 6.19-5.5 2.05-16.07 6.79-23.5 10.54-7.43 3.75-14.4 7.76-15.5 8.92l-2 2.11c3.49-0.06 8.66-2.26 13.75-4.94 5.09-2.68 13.75-6.78 19.25-9.11 5.5-2.33 15.18-5.73 21.5-7.54 6.32-1.82 15.55-4.03 20.5-4.9 4.95-0.88 17.1-1.89 27-2.24 11.85-0.42 21.41-0.23 28 0.57 5.5 0.66 14.73 2.33 20.5 3.7 5.77 1.37 14.55 3.88 19.5 5.57 4.95 1.7 13.5 5.2 19 7.77 5.5 2.58 16.52 8.73 24.5 13.68 7.98 4.95 15.29 9.3 16.25 9.68 0.96 0.38 1.77 0.58 1.79 0.44 0.03-0.14-3.46-3.01-7.75-6.38-4.28-3.38-11.39-8.38-15.79-11.12-4.4-2.74-13.18-7.35-19.5-10.24-6.32-2.9-16.68-6.96-23-9.04-6.32-2.07-16.23-4.77-22-6.01-8.55-1.82-14.39-2.3-31.5-2.55-14.22-0.21-23.9 0.13-30 1.05zm-128.38 14.68c1.44 1.3 16.69 14.06 33.9 28.36 17.2 14.3 44.83 37.25 61.4 51 16.57 13.75 38.6 31.97 48.95 40.5 10.36 8.53 23.84 19.66 29.98 24.75 6.13 5.08 11.49 9.24 11.9 9.25 0.41 0 0.75-13.28 0.75-29.5 0-17.67 0.4-30.3 1-31.5 0.55-1.1 2.69-3.01 4.75-4.25 3.72-2.23 4.14-2.25 48.75-2.57l45-0.32c2.63 5.92 3.64 9.1 3.95 10.89 0.3 1.79 1 3.47 1.55 3.75 0.55 0.28 7.86-0.4 16.25-1.49 8.39-1.1 18.4-2.56 22.25-3.26l7-1.27c0.99-20.13 1.32-31.72 1.39-38.73l0.11-12.75c-18.99 0.78-44.07 1.47-68 2.03-23.93 0.56-58.35 1.46-76.5 2-18.15 0.53-36.94 1.31-41.76 1.72l-8.76 0.75c0.02 42.24-0.32 54.51-0.73 54.52-0.41 0.02-7.35-4.82-15.43-10.75-8.07-5.92-25.56-18.87-38.86-28.77-13.31-9.9-29.73-22.05-36.5-27-6.77-4.95-20.34-14.82-30.14-21.93-9.8-7.11-19.4-14.02-21.32-15.36-3.5-2.43-3.5-2.43-0.88-0.07zm-51.64 74.61c-0.42 30.66-0.49 83.43-0.15 117.25 0.33 33.82 0.73 61.59 0.89 61.69 0.15 0.11 8.27 2.25 18.03 4.75 9.76 2.51 18.87 4.56 20.25 4.56h2.5c0.02-101.91 0.25-132.51 0.51-133.75 0.27-1.24 0.83-2.23 1.24-2.22 0.41 0.02 7.27 8.44 15.25 18.7 7.97 10.27 23.31 29.71 34.07 43.22 10.77 13.5 20.89 25.57 22.5 26.82 1.61 1.25 5.18 2.67 7.93 3.15 2.75 0.47 14 2.26 25 3.96 11 1.7 22 3.44 24.44 3.86 4.23 0.72 4.38 0.67 3.35-1.24-0.6-1.1-7.29-9.43-14.86-18.5-7.58-9.07-25.95-30.9-40.83-48.5-14.89-17.6-43.06-50.9-62.6-74-19.55-23.1-39.92-47.29-45.27-53.75-5.35-6.46-10.13-11.75-10.61-11.75-0.49 0-1.22 24.79-1.64 55.75zm-18.67 19.98c-1.45 3.73-4.04 11.49-5.76 17.27-1.72 5.78-4.06 16.13-5.19 23-1.47 8.94-2.05 16.92-2.03 28 0.03 11.05 0.64 18.95 2.12 27.5 1.14 6.6 3.47 16.5 5.17 22 1.7 5.5 4.03 12.48 5.18 15.5l2.08 5.5c1.23-5.43 1.87-37.15 2.22-74 0.36-38.28 0.25-67.97-0.26-69.27-0.79-2-1.19-1.5-3.53 4.5zm303.19 51.77v21.5c9.69 0.11 20.93 0.45 31.23 0.82l18.72 0.68 6.55 6.53c0.44 46.25 0.22 51.97-0.75 51.95-0.69-0.01-6.2-3.1-12.25-6.85-6.05-3.76-17.19-10.72-24.75-15.48-7.56-4.76-13.58-8.31-13.38-7.9 0.2 0.41 7.96 7.28 17.25 15.27 9.28 7.99 20.26 17.29 24.38 20.68 4.13 3.39 14.48 11.94 23 19 8.52 7.06 18.54 15.19 22.25 18.07l6.75 5.23c0.72-11.24 1.15-44.88 1.42-82l0.48-67.5c-10.38-1.15-33.09-1.49-57.15-1.49l-43.75-0.01zm-228.01 118.25c-0.01 1.51 1.4 5 3.12 7.75 1.73 2.75 8.83 10.67 15.77 17.59 6.94 6.92 15.99 15.07 20.12 18.09 4.12 3.03 12 8.19 17.5 11.48 5.5 3.28 11.57 6.7 13.5 7.59 1.93 0.89 7.78 3.24 13 5.24 5.22 1.99 14 4.91 19.5 6.49 5.5 1.58 14.95 3.61 21 4.52 6.05 0.91 17.3 1.9 25 2.2 7.98 0.32 19.37 0.05 26.5-0.64 6.87-0.65 17.9-2.55 24.5-4.21 6.6-1.65 15.15-4.12 19-5.47 3.85-1.35 11.83-4.8 17.74-7.67 5.91-2.86 10.64-5.33 10.5-5.49-0.13-0.15-4.97 1.48-10.74 3.61-5.77 2.14-14.32 5.05-19 6.46-4.68 1.42-12.32 3.48-17 4.57-4.68 1.1-12.1 2.58-16.5 3.3-4.71 0.76-16.44 1.29-28.5 1.29-15.48-0.01-22.95-0.46-30.5-1.84-5.5-1-14.28-2.93-19.5-4.28-5.22-1.35-14-4.22-19.5-6.37-5.5-2.15-14.05-6-19-8.55-4.95-2.55-13.5-7.69-19-11.43-5.5-3.73-15.35-11.9-21.89-18.14-6.75-6.43-14.6-15.13-18.14-20.09-3.43-4.81-6.52-8.75-6.85-8.75-0.34 0-0.63 1.24-0.63 2.75z"/>
				<path id="Path 13" fill-rule="evenodd" class="s1" d="m218.13 202.15c3.1 2.94 16.15 15.27 29 27.39 12.85 12.13 30.57 28.56 39.37 36.51 8.8 7.95 23.43 20.95 32.5 28.9 9.07 7.94 19.65 17.1 23.5 20.35l7 5.9c-12.4-11.97-30.85-29-49.01-45.57-18.15-16.57-44.63-40.7-58.85-53.63-14.21-12.93-26.58-23.88-27.49-24.35-0.91-0.47 0.88 1.56 3.98 4.5z"/>
			</g>
		</g>
	</g>
</svg>